G04 #@! TF.FileFunction,Legend,Bot*
%FSLAX46Y46*%
G04 Gerber Fmt 4.6, Leading zero omitted, Abs format (unit mm)*
G04 Created by KiCad (PCBNEW (2015-01-02 BZR 5348)-product) date 1/13/2015 10:06:43 PM*
%MOMM*%
G01*
G04 APERTURE LIST*
%ADD10C,0.100000*%
%ADD11C,0.203200*%
G04 APERTURE END LIST*
D10*
D11*
X159717618Y-93250657D02*
X159717618Y-94278752D01*
X159778095Y-94399705D01*
X159838571Y-94460181D01*
X159959523Y-94520657D01*
X160140952Y-94520657D01*
X160261904Y-94460181D01*
X159717618Y-94036848D02*
X159838571Y-94097324D01*
X160080475Y-94097324D01*
X160201428Y-94036848D01*
X160261904Y-93976371D01*
X160322380Y-93855419D01*
X160322380Y-93492562D01*
X160261904Y-93371610D01*
X160201428Y-93311133D01*
X160080475Y-93250657D01*
X159838571Y-93250657D01*
X159717618Y-93311133D01*
X159112856Y-94097324D02*
X159112856Y-93250657D01*
X159112856Y-92827324D02*
X159173332Y-92887800D01*
X159112856Y-92948276D01*
X159052380Y-92887800D01*
X159112856Y-92827324D01*
X159112856Y-92948276D01*
X158689523Y-93250657D02*
X158205713Y-93250657D01*
X158508094Y-92827324D02*
X158508094Y-93915895D01*
X158447618Y-94036848D01*
X158326665Y-94097324D01*
X158205713Y-94097324D01*
X157782380Y-94097324D02*
X157782380Y-92827324D01*
X157238094Y-94097324D02*
X157238094Y-93432086D01*
X157298571Y-93311133D01*
X157419523Y-93250657D01*
X157600951Y-93250657D01*
X157721904Y-93311133D01*
X157782380Y-93371610D01*
X156089046Y-93250657D02*
X156089046Y-94097324D01*
X156633332Y-93250657D02*
X156633332Y-93915895D01*
X156572856Y-94036848D01*
X156451903Y-94097324D01*
X156270475Y-94097324D01*
X156149523Y-94036848D01*
X156089046Y-93976371D01*
X155484284Y-94097324D02*
X155484284Y-92827324D01*
X155484284Y-93311133D02*
X155363332Y-93250657D01*
X155121427Y-93250657D01*
X155000475Y-93311133D01*
X154939998Y-93371610D01*
X154879522Y-93492562D01*
X154879522Y-93855419D01*
X154939998Y-93976371D01*
X155000475Y-94036848D01*
X155121427Y-94097324D01*
X155363332Y-94097324D01*
X155484284Y-94036848D01*
X154335236Y-93976371D02*
X154274760Y-94036848D01*
X154335236Y-94097324D01*
X154395712Y-94036848D01*
X154335236Y-93976371D01*
X154335236Y-94097324D01*
X153186188Y-94036848D02*
X153307141Y-94097324D01*
X153549045Y-94097324D01*
X153669998Y-94036848D01*
X153730474Y-93976371D01*
X153790950Y-93855419D01*
X153790950Y-93492562D01*
X153730474Y-93371610D01*
X153669998Y-93311133D01*
X153549045Y-93250657D01*
X153307141Y-93250657D01*
X153186188Y-93311133D01*
X152460474Y-94097324D02*
X152581427Y-94036848D01*
X152641903Y-93976371D01*
X152702379Y-93855419D01*
X152702379Y-93492562D01*
X152641903Y-93371610D01*
X152581427Y-93311133D01*
X152460474Y-93250657D01*
X152279046Y-93250657D01*
X152158094Y-93311133D01*
X152097617Y-93371610D01*
X152037141Y-93492562D01*
X152037141Y-93855419D01*
X152097617Y-93976371D01*
X152158094Y-94036848D01*
X152279046Y-94097324D01*
X152460474Y-94097324D01*
X151492855Y-94097324D02*
X151492855Y-93250657D01*
X151492855Y-93371610D02*
X151432379Y-93311133D01*
X151311426Y-93250657D01*
X151129998Y-93250657D01*
X151009046Y-93311133D01*
X150948569Y-93432086D01*
X150948569Y-94097324D01*
X150948569Y-93432086D02*
X150888093Y-93311133D01*
X150767141Y-93250657D01*
X150585712Y-93250657D01*
X150464760Y-93311133D01*
X150404284Y-93432086D01*
X150404284Y-94097324D01*
X148892379Y-92766848D02*
X149980951Y-94399705D01*
X148469046Y-94097324D02*
X148469046Y-93250657D01*
X148469046Y-93371610D02*
X148408570Y-93311133D01*
X148287617Y-93250657D01*
X148106189Y-93250657D01*
X147985237Y-93311133D01*
X147924760Y-93432086D01*
X147924760Y-94097324D01*
X147924760Y-93432086D02*
X147864284Y-93311133D01*
X147743332Y-93250657D01*
X147561903Y-93250657D01*
X147440951Y-93311133D01*
X147380475Y-93432086D01*
X147380475Y-94097324D01*
X146896665Y-93250657D02*
X146594284Y-94097324D01*
X146291904Y-93250657D02*
X146594284Y-94097324D01*
X146715237Y-94399705D01*
X146775713Y-94460181D01*
X146896665Y-94520657D01*
X145324285Y-94036848D02*
X145445237Y-94097324D01*
X145687142Y-94097324D01*
X145808094Y-94036848D01*
X145868570Y-93915895D01*
X145868570Y-93432086D01*
X145808094Y-93311133D01*
X145687142Y-93250657D01*
X145445237Y-93250657D01*
X145324285Y-93311133D01*
X145263808Y-93432086D01*
X145263808Y-93553038D01*
X145868570Y-93673990D01*
X144538094Y-94097324D02*
X144659047Y-94036848D01*
X144719523Y-93915895D01*
X144719523Y-92827324D01*
X144054285Y-94097324D02*
X144054285Y-93250657D01*
X144054285Y-92827324D02*
X144114761Y-92887800D01*
X144054285Y-92948276D01*
X143993809Y-92887800D01*
X144054285Y-92827324D01*
X144054285Y-92948276D01*
X143449523Y-93250657D02*
X143449523Y-94097324D01*
X143449523Y-93371610D02*
X143389047Y-93311133D01*
X143268094Y-93250657D01*
X143086666Y-93250657D01*
X142965714Y-93311133D01*
X142905237Y-93432086D01*
X142905237Y-94097324D01*
X141393332Y-92766848D02*
X142481904Y-94399705D01*
X141151428Y-93250657D02*
X140667618Y-93250657D01*
X140969999Y-92827324D02*
X140969999Y-93915895D01*
X140909523Y-94036848D01*
X140788570Y-94097324D01*
X140667618Y-94097324D01*
X140244285Y-94097324D02*
X140244285Y-93250657D01*
X140244285Y-92827324D02*
X140304761Y-92887800D01*
X140244285Y-92948276D01*
X140183809Y-92887800D01*
X140244285Y-92827324D01*
X140244285Y-92948276D01*
X139639523Y-93250657D02*
X139639523Y-94097324D01*
X139639523Y-93371610D02*
X139579047Y-93311133D01*
X139458094Y-93250657D01*
X139276666Y-93250657D01*
X139155714Y-93311133D01*
X139095237Y-93432086D01*
X139095237Y-94097324D01*
X138611427Y-93250657D02*
X138309046Y-94097324D01*
X138006666Y-93250657D02*
X138309046Y-94097324D01*
X138429999Y-94399705D01*
X138490475Y-94460181D01*
X138611427Y-94520657D01*
X137522856Y-93613514D02*
X136555237Y-93613514D01*
X136131904Y-93250657D02*
X135648094Y-93250657D01*
X135950475Y-92827324D02*
X135950475Y-93915895D01*
X135889999Y-94036848D01*
X135769046Y-94097324D01*
X135648094Y-94097324D01*
X135406190Y-93250657D02*
X134922380Y-93250657D01*
X135224761Y-94097324D02*
X135224761Y-93008752D01*
X135164285Y-92887800D01*
X135043332Y-92827324D01*
X134922380Y-92827324D01*
X134680476Y-93250657D02*
X134196666Y-93250657D01*
X134499047Y-92827324D02*
X134499047Y-93915895D01*
X134438571Y-94036848D01*
X134317618Y-94097324D01*
X134196666Y-94097324D01*
X160866667Y-95231857D02*
X160382857Y-95231857D01*
X160685238Y-96078524D02*
X160685238Y-94989952D01*
X160624762Y-94869000D01*
X160503809Y-94808524D01*
X160382857Y-94808524D01*
X159778095Y-96078524D02*
X159899048Y-96018048D01*
X159959524Y-95897095D01*
X159959524Y-94808524D01*
X158810477Y-96018048D02*
X158931429Y-96078524D01*
X159173334Y-96078524D01*
X159294286Y-96018048D01*
X159354762Y-95897095D01*
X159354762Y-95413286D01*
X159294286Y-95292333D01*
X159173334Y-95231857D01*
X158931429Y-95231857D01*
X158810477Y-95292333D01*
X158750000Y-95413286D01*
X158750000Y-95534238D01*
X159354762Y-95655190D01*
X158326667Y-96078524D02*
X157661429Y-95231857D01*
X158326667Y-95231857D02*
X157661429Y-96078524D01*
X157177620Y-96078524D02*
X157177620Y-95231857D01*
X157177620Y-94808524D02*
X157238096Y-94869000D01*
X157177620Y-94929476D01*
X157117144Y-94869000D01*
X157177620Y-94808524D01*
X157177620Y-94929476D01*
X156572858Y-96078524D02*
X156572858Y-94808524D01*
X156572858Y-95292333D02*
X156451906Y-95231857D01*
X156210001Y-95231857D01*
X156089049Y-95292333D01*
X156028572Y-95352810D01*
X155968096Y-95473762D01*
X155968096Y-95836619D01*
X156028572Y-95957571D01*
X156089049Y-96018048D01*
X156210001Y-96078524D01*
X156451906Y-96078524D01*
X156572858Y-96018048D01*
X155242381Y-96078524D02*
X155363334Y-96018048D01*
X155423810Y-95897095D01*
X155423810Y-94808524D01*
X154274763Y-96018048D02*
X154395715Y-96078524D01*
X154637620Y-96078524D01*
X154758572Y-96018048D01*
X154819048Y-95897095D01*
X154819048Y-95413286D01*
X154758572Y-95292333D01*
X154637620Y-95231857D01*
X154395715Y-95231857D01*
X154274763Y-95292333D01*
X154214286Y-95413286D01*
X154214286Y-95534238D01*
X154819048Y-95655190D01*
X152702382Y-95231857D02*
X152702382Y-96501857D01*
X152702382Y-95292333D02*
X152581430Y-95231857D01*
X152339525Y-95231857D01*
X152218573Y-95292333D01*
X152158096Y-95352810D01*
X152097620Y-95473762D01*
X152097620Y-95836619D01*
X152158096Y-95957571D01*
X152218573Y-96018048D01*
X152339525Y-96078524D01*
X152581430Y-96078524D01*
X152702382Y-96018048D01*
X151009048Y-96018048D02*
X151130001Y-96078524D01*
X151371905Y-96078524D01*
X151492858Y-96018048D01*
X151553334Y-95957571D01*
X151613810Y-95836619D01*
X151613810Y-95473762D01*
X151553334Y-95352810D01*
X151492858Y-95292333D01*
X151371905Y-95231857D01*
X151130001Y-95231857D01*
X151009048Y-95292333D01*
X150464763Y-96078524D02*
X150464763Y-94808524D01*
X150464763Y-95292333D02*
X150343811Y-95231857D01*
X150101906Y-95231857D01*
X149980954Y-95292333D01*
X149920477Y-95352810D01*
X149860001Y-95473762D01*
X149860001Y-95836619D01*
X149920477Y-95957571D01*
X149980954Y-96018048D01*
X150101906Y-96078524D01*
X150343811Y-96078524D01*
X150464763Y-96018048D01*
X148529525Y-95231857D02*
X148045715Y-95231857D01*
X148348096Y-94808524D02*
X148348096Y-95897095D01*
X148287620Y-96018048D01*
X148166667Y-96078524D01*
X148045715Y-96078524D01*
X147440953Y-96078524D02*
X147561906Y-96018048D01*
X147622382Y-95957571D01*
X147682858Y-95836619D01*
X147682858Y-95473762D01*
X147622382Y-95352810D01*
X147561906Y-95292333D01*
X147440953Y-95231857D01*
X147259525Y-95231857D01*
X147138573Y-95292333D01*
X147078096Y-95352810D01*
X147017620Y-95473762D01*
X147017620Y-95836619D01*
X147078096Y-95957571D01*
X147138573Y-96018048D01*
X147259525Y-96078524D01*
X147440953Y-96078524D01*
X145263810Y-94808524D02*
X145142858Y-94808524D01*
X145021906Y-94869000D01*
X144961429Y-94929476D01*
X144900953Y-95050429D01*
X144840477Y-95292333D01*
X144840477Y-95594714D01*
X144900953Y-95836619D01*
X144961429Y-95957571D01*
X145021906Y-96018048D01*
X145142858Y-96078524D01*
X145263810Y-96078524D01*
X145384763Y-96018048D01*
X145445239Y-95957571D01*
X145505715Y-95836619D01*
X145566191Y-95594714D01*
X145566191Y-95292333D01*
X145505715Y-95050429D01*
X145445239Y-94929476D01*
X145384763Y-94869000D01*
X145263810Y-94808524D01*
X144296191Y-95957571D02*
X144235715Y-96018048D01*
X144296191Y-96078524D01*
X144356667Y-96018048D01*
X144296191Y-95957571D01*
X144296191Y-96078524D01*
X143026191Y-96078524D02*
X143751905Y-96078524D01*
X143389048Y-96078524D02*
X143389048Y-94808524D01*
X143510000Y-94989952D01*
X143630953Y-95110905D01*
X143751905Y-95171381D01*
X142542381Y-94808524D02*
X142542381Y-95050429D01*
X142058572Y-94808524D02*
X142058572Y-95050429D01*
X140002381Y-96078524D02*
X140002381Y-95413286D01*
X140062858Y-95292333D01*
X140183810Y-95231857D01*
X140425715Y-95231857D01*
X140546667Y-95292333D01*
X140002381Y-96018048D02*
X140123334Y-96078524D01*
X140425715Y-96078524D01*
X140546667Y-96018048D01*
X140607143Y-95897095D01*
X140607143Y-95776143D01*
X140546667Y-95655190D01*
X140425715Y-95594714D01*
X140123334Y-95594714D01*
X140002381Y-95534238D01*
X138853333Y-96078524D02*
X138853333Y-94808524D01*
X138853333Y-96018048D02*
X138974286Y-96078524D01*
X139216190Y-96078524D01*
X139337143Y-96018048D01*
X139397619Y-95957571D01*
X139458095Y-95836619D01*
X139458095Y-95473762D01*
X139397619Y-95352810D01*
X139337143Y-95292333D01*
X139216190Y-95231857D01*
X138974286Y-95231857D01*
X138853333Y-95292333D01*
X137704285Y-96078524D02*
X137704285Y-95413286D01*
X137764762Y-95292333D01*
X137885714Y-95231857D01*
X138127619Y-95231857D01*
X138248571Y-95292333D01*
X137704285Y-96018048D02*
X137825238Y-96078524D01*
X138127619Y-96078524D01*
X138248571Y-96018048D01*
X138309047Y-95897095D01*
X138309047Y-95776143D01*
X138248571Y-95655190D01*
X138127619Y-95594714D01*
X137825238Y-95594714D01*
X137704285Y-95534238D01*
X137099523Y-95231857D02*
X137099523Y-96501857D01*
X137099523Y-95292333D02*
X136978571Y-95231857D01*
X136736666Y-95231857D01*
X136615714Y-95292333D01*
X136555237Y-95352810D01*
X136494761Y-95473762D01*
X136494761Y-95836619D01*
X136555237Y-95957571D01*
X136615714Y-96018048D01*
X136736666Y-96078524D01*
X136978571Y-96078524D01*
X137099523Y-96018048D01*
X136131904Y-95231857D02*
X135648094Y-95231857D01*
X135950475Y-94808524D02*
X135950475Y-95897095D01*
X135889999Y-96018048D01*
X135769046Y-96078524D01*
X135648094Y-96078524D01*
X134740952Y-96018048D02*
X134861904Y-96078524D01*
X135103809Y-96078524D01*
X135224761Y-96018048D01*
X135285237Y-95897095D01*
X135285237Y-95413286D01*
X135224761Y-95292333D01*
X135103809Y-95231857D01*
X134861904Y-95231857D01*
X134740952Y-95292333D01*
X134680475Y-95413286D01*
X134680475Y-95534238D01*
X135285237Y-95655190D01*
X134136190Y-96078524D02*
X134136190Y-95231857D01*
X134136190Y-95473762D02*
X134075714Y-95352810D01*
X134015238Y-95292333D01*
X133894285Y-95231857D01*
X133773333Y-95231857D01*
X158659287Y-98543533D02*
X158719763Y-98483057D01*
X158840715Y-98301629D01*
X158901192Y-98180676D01*
X158961668Y-97999248D01*
X159022144Y-97696867D01*
X159022144Y-97454962D01*
X158961668Y-97152581D01*
X158901192Y-96971152D01*
X158840715Y-96850200D01*
X158719763Y-96668771D01*
X158659287Y-96608295D01*
X157631191Y-97999248D02*
X157752144Y-98059724D01*
X157994048Y-98059724D01*
X158115001Y-97999248D01*
X158175477Y-97938771D01*
X158235953Y-97817819D01*
X158235953Y-97454962D01*
X158175477Y-97334010D01*
X158115001Y-97273533D01*
X157994048Y-97213057D01*
X157752144Y-97213057D01*
X157631191Y-97273533D01*
X157207858Y-98543533D02*
X157147382Y-98483057D01*
X157026430Y-98301629D01*
X156965954Y-98180676D01*
X156905477Y-97999248D01*
X156845001Y-97696867D01*
X156845001Y-97454962D01*
X156905477Y-97152581D01*
X156965954Y-96971152D01*
X157026430Y-96850200D01*
X157147382Y-96668771D01*
X157207858Y-96608295D01*
X155333096Y-96910676D02*
X155272620Y-96850200D01*
X155151668Y-96789724D01*
X154849287Y-96789724D01*
X154728334Y-96850200D01*
X154667858Y-96910676D01*
X154607382Y-97031629D01*
X154607382Y-97152581D01*
X154667858Y-97334010D01*
X155393572Y-98059724D01*
X154607382Y-98059724D01*
X153821191Y-96789724D02*
X153700239Y-96789724D01*
X153579287Y-96850200D01*
X153518810Y-96910676D01*
X153458334Y-97031629D01*
X153397858Y-97273533D01*
X153397858Y-97575914D01*
X153458334Y-97817819D01*
X153518810Y-97938771D01*
X153579287Y-97999248D01*
X153700239Y-98059724D01*
X153821191Y-98059724D01*
X153942144Y-97999248D01*
X154002620Y-97938771D01*
X154063096Y-97817819D01*
X154123572Y-97575914D01*
X154123572Y-97273533D01*
X154063096Y-97031629D01*
X154002620Y-96910676D01*
X153942144Y-96850200D01*
X153821191Y-96789724D01*
X152188334Y-98059724D02*
X152914048Y-98059724D01*
X152551191Y-98059724D02*
X152551191Y-96789724D01*
X152672143Y-96971152D01*
X152793096Y-97092105D01*
X152914048Y-97152581D01*
X151099762Y-97213057D02*
X151099762Y-98059724D01*
X151402143Y-96729248D02*
X151704524Y-97636390D01*
X150918334Y-97636390D01*
X149466905Y-97213057D02*
X149466905Y-98483057D01*
X149466905Y-97273533D02*
X149345953Y-97213057D01*
X149104048Y-97213057D01*
X148983096Y-97273533D01*
X148922619Y-97334010D01*
X148862143Y-97454962D01*
X148862143Y-97817819D01*
X148922619Y-97938771D01*
X148983096Y-97999248D01*
X149104048Y-98059724D01*
X149345953Y-98059724D01*
X149466905Y-97999248D01*
X148317857Y-98059724D02*
X148317857Y-96789724D01*
X147773571Y-98059724D02*
X147773571Y-97394486D01*
X147834048Y-97273533D01*
X147955000Y-97213057D01*
X148136428Y-97213057D01*
X148257381Y-97273533D01*
X148317857Y-97334010D01*
X147168809Y-98059724D02*
X147168809Y-97213057D01*
X147168809Y-96789724D02*
X147229285Y-96850200D01*
X147168809Y-96910676D01*
X147108333Y-96850200D01*
X147168809Y-96789724D01*
X147168809Y-96910676D01*
X146382618Y-98059724D02*
X146503571Y-97999248D01*
X146564047Y-97878295D01*
X146564047Y-96789724D01*
X145717380Y-98059724D02*
X145838333Y-97999248D01*
X145898809Y-97878295D01*
X145898809Y-96789724D01*
X145233571Y-98059724D02*
X145233571Y-97213057D01*
X145233571Y-96789724D02*
X145294047Y-96850200D01*
X145233571Y-96910676D01*
X145173095Y-96850200D01*
X145233571Y-96789724D01*
X145233571Y-96910676D01*
X144628809Y-97213057D02*
X144628809Y-98483057D01*
X144628809Y-97273533D02*
X144507857Y-97213057D01*
X144265952Y-97213057D01*
X144145000Y-97273533D01*
X144084523Y-97334010D01*
X144024047Y-97454962D01*
X144024047Y-97817819D01*
X144084523Y-97938771D01*
X144145000Y-97999248D01*
X144265952Y-98059724D01*
X144507857Y-98059724D01*
X144628809Y-97999248D01*
X142512142Y-97213057D02*
X142512142Y-98483057D01*
X142512142Y-97273533D02*
X142391190Y-97213057D01*
X142149285Y-97213057D01*
X142028333Y-97273533D01*
X141967856Y-97334010D01*
X141907380Y-97454962D01*
X141907380Y-97817819D01*
X141967856Y-97938771D01*
X142028333Y-97999248D01*
X142149285Y-98059724D01*
X142391190Y-98059724D01*
X142512142Y-97999248D01*
X140879285Y-97999248D02*
X141000237Y-98059724D01*
X141242142Y-98059724D01*
X141363094Y-97999248D01*
X141423570Y-97878295D01*
X141423570Y-97394486D01*
X141363094Y-97273533D01*
X141242142Y-97213057D01*
X141000237Y-97213057D01*
X140879285Y-97273533D01*
X140818808Y-97394486D01*
X140818808Y-97515438D01*
X141423570Y-97636390D01*
X139730237Y-98059724D02*
X139730237Y-97394486D01*
X139790714Y-97273533D01*
X139911666Y-97213057D01*
X140153571Y-97213057D01*
X140274523Y-97273533D01*
X139730237Y-97999248D02*
X139851190Y-98059724D01*
X140153571Y-98059724D01*
X140274523Y-97999248D01*
X140334999Y-97878295D01*
X140334999Y-97757343D01*
X140274523Y-97636390D01*
X140153571Y-97575914D01*
X139851190Y-97575914D01*
X139730237Y-97515438D01*
X139125475Y-98059724D02*
X139125475Y-97213057D01*
X139125475Y-97454962D02*
X139064999Y-97334010D01*
X139004523Y-97273533D01*
X138883570Y-97213057D01*
X138762618Y-97213057D01*
X138399761Y-97999248D02*
X138278809Y-98059724D01*
X138036904Y-98059724D01*
X137915952Y-97999248D01*
X137855476Y-97878295D01*
X137855476Y-97817819D01*
X137915952Y-97696867D01*
X138036904Y-97636390D01*
X138218333Y-97636390D01*
X138339285Y-97575914D01*
X138399761Y-97454962D01*
X138399761Y-97394486D01*
X138339285Y-97273533D01*
X138218333Y-97213057D01*
X138036904Y-97213057D01*
X137915952Y-97273533D01*
X137129761Y-98059724D02*
X137250714Y-97999248D01*
X137311190Y-97938771D01*
X137371666Y-97817819D01*
X137371666Y-97454962D01*
X137311190Y-97334010D01*
X137250714Y-97273533D01*
X137129761Y-97213057D01*
X136948333Y-97213057D01*
X136827381Y-97273533D01*
X136766904Y-97334010D01*
X136706428Y-97454962D01*
X136706428Y-97817819D01*
X136766904Y-97938771D01*
X136827381Y-97999248D01*
X136948333Y-98059724D01*
X137129761Y-98059724D01*
X136162142Y-97213057D02*
X136162142Y-98059724D01*
X136162142Y-97334010D02*
X136101666Y-97273533D01*
X135980713Y-97213057D01*
X135799285Y-97213057D01*
X135678333Y-97273533D01*
X135617856Y-97394486D01*
X135617856Y-98059724D01*
M02*
