G04 #@! TF.FileFunction,Soldermask,Top*
%FSLAX46Y46*%
G04 Gerber Fmt 4.6, Leading zero omitted, Abs format (unit mm)*
G04 Created by KiCad (PCBNEW (2015-01-02 BZR 5348)-product) date 1/13/2015 10:06:43 PM*
%MOMM*%
G01*
G04 APERTURE LIST*
%ADD10C,0.100000*%
%ADD11R,1.727200X1.727200*%
%ADD12O,1.727200X1.727200*%
%ADD13R,0.500000X3.000000*%
G04 APERTURE END LIST*
D10*
D11*
X132080000Y-102870000D03*
D12*
X132080000Y-100330000D03*
X134620000Y-102870000D03*
X134620000Y-100330000D03*
X137160000Y-102870000D03*
X137160000Y-100330000D03*
X139700000Y-102870000D03*
X139700000Y-100330000D03*
X142240000Y-102870000D03*
X142240000Y-100330000D03*
X144780000Y-102870000D03*
X144780000Y-100330000D03*
X147320000Y-102870000D03*
X147320000Y-100330000D03*
X149860000Y-102870000D03*
X149860000Y-100330000D03*
X152400000Y-102870000D03*
X152400000Y-100330000D03*
X154940000Y-102870000D03*
X154940000Y-100330000D03*
X157480000Y-102870000D03*
X157480000Y-100330000D03*
X160020000Y-102870000D03*
X160020000Y-100330000D03*
X162560000Y-102870000D03*
X162560000Y-100330000D03*
D13*
X137320000Y-93980000D03*
X138120000Y-93980000D03*
X138920000Y-93980000D03*
X139720000Y-93980000D03*
X140520000Y-93980000D03*
X141320000Y-93980000D03*
X142120000Y-93980000D03*
X142920000Y-93980000D03*
X143720000Y-93980000D03*
X144520000Y-93980000D03*
X145320000Y-93980000D03*
X146120000Y-93980000D03*
X146920000Y-93980000D03*
X147720000Y-93980000D03*
X148520000Y-93980000D03*
X149320000Y-93980000D03*
X150120000Y-93980000D03*
X150920000Y-93980000D03*
X151720000Y-93980000D03*
X152520000Y-93980000D03*
X153320000Y-93980000D03*
X154120000Y-93980000D03*
X154920000Y-93980000D03*
X155720000Y-93980000D03*
X156520000Y-93980000D03*
X157320000Y-93980000D03*
M02*
