M48
;DRILL file {kicad (2015-01-02 BZR 5348)-product} date 1/13/2015 10:06:45 PM
;FORMAT={-:-/ absolute / inch / decimal}
FMAT,2
INCH,TZ
T1C0.025
T2C0.040
%
G90
G05
M72
T1
X5.25Y-3.805
T2
X5.2Y-3.95
X5.2Y-4.05
X5.3Y-3.95
X5.3Y-4.05
X5.4Y-3.95
X5.4Y-4.05
X5.5Y-3.95
X5.5Y-4.05
X5.6Y-3.95
X5.6Y-4.05
X5.7Y-3.95
X5.7Y-4.05
X5.8Y-3.95
X5.8Y-4.05
X5.9Y-3.95
X5.9Y-4.05
X6.Y-3.95
X6.Y-4.05
X6.1Y-3.95
X6.1Y-4.05
X6.2Y-3.95
X6.2Y-4.05
X6.3Y-3.95
X6.3Y-4.05
X6.4Y-3.95
X6.4Y-4.05
T0
M30
